<svg width="462" height="51" viewBox="0 0 462 51" fill="none" xmlns="http://www.w3.org/2000/svg">
<path d="M287.53 12.2384V22.3027H275.688V12.2384H267.058V40.6158H275.688V29.7592H287.53V40.6158H296.16V12.2384H287.53ZM316.814 34.5321C312.578 34.5321 309.143 30.9934 309.143 26.6262C309.143 22.2609 312.578 18.7209 316.814 18.7209C321.051 18.7209 324.486 22.2609 324.486 26.6262C324.486 30.9934 321.051 34.5321 316.814 34.5321ZM316.753 11.4186C307.463 11.4186 300.729 17.7866 300.729 26.6271C300.729 35.468 307.463 41.8369 316.753 41.8369C326.043 41.8369 332.775 35.468 332.775 26.6271C332.775 17.7866 326.043 11.4186 316.753 11.4186ZM453.418 30.7055C452.433 33.078 449.993 34.7345 447.484 34.7345C442.98 34.7345 439.71 31.3373 439.71 26.6552C439.71 21.9728 442.98 18.5746 447.484 18.5746C449.993 18.5746 452.433 20.2321 453.418 22.6048L453.528 22.8713L460.448 19.5968L460.322 19.3459C458.52 15.7421 454.831 11.4454 447.484 11.4454C438.273 11.4454 431.589 17.8414 431.589 26.6552C431.589 35.4677 438.273 41.8647 447.484 41.8647C455.218 41.8647 458.847 36.9148 460.322 33.9641L460.448 33.7123L453.528 30.4391L453.418 30.7055ZM418.068 26.3364L430.966 12.2388H420.504L410.972 23.1834V12.2388H402.521V40.6161H410.972V30.2204L421.005 40.6161H431.621L418.068 26.3364ZM380.83 11.4454C373.017 11.4454 369.433 16.3965 367.992 19.3482L367.869 19.5977L374.785 22.8713L374.895 22.6048C375.728 20.5986 377.953 18.5746 381.046 18.5746C384.237 18.5746 386.688 20.1511 387.83 22.9172H378.058V29.96H387.981C386.925 33.0005 384.417 34.7345 381.046 34.7345C377.953 34.7345 375.728 32.7114 374.895 30.7055L374.785 30.4391L367.867 33.7123L367.993 33.9641C369.467 36.9148 373.096 41.8647 380.83 41.8647C390.04 41.8647 396.726 35.4677 396.726 26.6552C396.726 17.8414 390.04 11.4454 380.83 11.4454ZM352.774 22.9268H345.377V18.8225H352.774C354.073 18.8225 354.98 19.658 354.98 20.8533C354.98 22.0936 354.093 22.9268 352.774 22.9268ZM345.377 29.5523H353.025C354.52 29.5523 355.525 30.4528 355.525 31.7922C355.525 33.1743 354.567 34.032 353.025 34.032H345.377V29.5523ZM358.804 25.9594C361.259 24.9948 362.847 22.5535 362.847 19.6016C362.847 16.0552 360.207 12.2384 354.408 12.2384H337.635V40.6158H354.912C357.556 40.6158 359.754 39.8075 361.267 38.2771C362.637 36.8915 363.392 34.944 363.392 32.794C363.392 29.6218 361.477 26.8535 358.804 25.9594Z" fill="white"/>
<path d="M226.209 36.8101C231.902 30.6898 240.085 18.271 240.085 9.46395C240.085 3.46507 237.361 1.21023 231.633 1.17995C229.457 1.1688 227.328 1.38236 225.072 1.64788C226.551 3.23111 227.509 4.98647 227.509 8.79935C227.509 17.8334 222.657 27.4794 218.848 32.3068C212.128 9.02439 210.936 1.179 196.433 1.179C194.639 1.179 193.174 1.28673 191.195 1.55098C199.677 8.11245 203.852 20.5447 211.187 40.9886H217.451C212.22 43.8889 207.126 46.9037 202.523 46.9037C204.472 48.9826 206.744 49.8206 209.235 49.8206C218.672 49.8206 230.771 38.8489 241.067 39.7981C238.109 36.9373 235.151 35.7127 232.063 35.7127C230.131 35.7127 228.174 36.1344 226.209 36.8101Z" fill="white"/>
<path d="M52.622 34.3329C48.3857 34.3329 44.9506 30.7942 44.9506 26.4267C44.9506 22.0614 48.3857 18.5217 52.622 18.5217C56.8587 18.5217 60.2935 22.0614 60.2935 26.4267C60.2935 30.7942 56.8587 34.3329 52.622 34.3329ZM93.6206 12.2388L87.454 31.5732L80.6661 12.2388H71.6255L82.6208 40.6161H92.2862L103.325 12.2388H93.6206ZM115.112 23.3568C115.897 20.4444 118.529 18.1921 121.795 18.1921C125.355 18.1921 127.746 20.3758 128.541 23.3568H115.112ZM137.305 26.4279C137.305 17.8491 131.065 11.2194 121.775 11.2194C113.802 11.2194 106.246 17.5884 106.246 26.4279C106.246 35.2685 112.979 41.6374 122.269 41.6374C128.541 41.6374 133.506 38.9389 135.848 36.232L130.052 31.5936C128.201 33.2084 126.02 34.3329 122.495 34.3329C119.033 34.3329 115.89 32.5584 115.004 29.0143H137.087C137.218 28.1775 137.305 27.3195 137.305 26.4279ZM22.4945 28.5039L9.93036 12.2384H1.55191V40.6158H9.71019V24.2694L22.4372 40.6158H30.6525V12.2384H22.4945V28.5039ZM170.658 12.2388H161.188L155.826 19.7772L150.442 12.2388H140.854L150.755 25.844L139.908 40.6161H149.386L155.716 31.9576L161.989 40.6161H171.577L160.786 25.7888L170.658 12.2388ZM52.5602 11.2194C43.2702 11.2194 36.5374 17.5871 36.5374 26.4279C36.5374 35.2685 43.2702 41.6374 52.5602 41.6374C61.8502 41.6374 68.5833 35.2685 68.5833 26.4279C68.5833 17.5871 61.8502 11.2194 52.5602 11.2194Z" fill="white"/>
</svg>
