<svg width="36" height="36" viewBox="0 0 36 36" fill="none" xmlns="http://www.w3.org/2000/svg">
<path d="M18 0C11.0106 0 5.32452 5.77547 5.32452 12.8741V23.1262C5.32452 30.2249 11.0106 36 18 36C24.989 36 30.6756 30.2424 30.6756 23.1656V12.8741C30.6756 5.77547 24.989 0 18 0ZM28.2914 23.1656C28.2914 28.928 23.675 33.6159 18 33.6159C12.3255 33.6159 7.70868 28.9101 7.70868 23.1259V12.8741C7.70868 7.08989 12.3255 2.38409 18 2.38409C23.675 2.38409 28.2914 7.08989 28.2914 12.8741V23.1656Z" fill="white"/>
<path d="M18 9.85431C17.3416 9.85431 16.8079 10.388 16.8079 11.0464V15.2186C16.8079 15.877 17.3416 16.4107 18 16.4107C18.6584 16.4107 19.1921 15.877 19.1921 15.2186V11.0464C19.1921 10.388 18.6584 9.85431 18 9.85431Z" fill="white"/>
</svg>
