<svg width="21" height="21" viewBox="0 0 21 21" fill="red" xmlns="http://www.w3.org/2000/svg">
<path d="M18.75 21H2.25C1.625 21 1.09375 20.7812 0.65625 20.3438C0.21875 19.9062 0 19.375 0 18.75V2.25C0 1.625 0.21875 1.09375 0.65625 0.65625C1.09375 0.21875 1.625 0 2.25 0H18.75C19.375 0 19.9062 0.21875 20.3438 0.65625C20.7812 1.09375 21 1.625 21 2.25V18.75C21 19.375 20.7812 19.9062 20.3438 20.3438C19.9062 20.7812 19.375 21 18.75 21ZM9.14062 16.4062L17.7656 7.78125C18.1406 7.4375 18.1406 7.07812 17.7656 6.70312L16.7344 5.67188C16.3594 5.29688 16 5.29688 15.6562 5.67188L8.625 12.7031L5.34375 9.42188C5 9.04688 4.64062 9.04688 4.26562 9.42188L3.23438 10.4531C2.85938 10.8281 2.85938 11.1875 3.23438 11.5312L8.10938 16.4062C8.45312 16.75 8.79688 16.75 9.14062 16.4062Z" fill="white"/>
</svg>
